<?xml version="1.0" standalone="no"?>
<!DOCTYPE svg PUBLIC "-//W3C//DTD SVG 1.1//EN" "http://www.w3.org/Graphics/SVG/1.1/DTD/svg11.dtd"><svg t="1670061380568" class="icon" viewBox="0 0 1024 1024" version="1.1" xmlns="http://www.w3.org/2000/svg" p-id="2795" xmlns:xlink="http://www.w3.org/1999/xlink" width="200" height="200">
  <path d="M0 0h1024v1024H0V0z" fill="#202425" opacity=".01" p-id="2796"></path>
  <path d="M136.533333 256H102.4a51.2 51.2 0 1 1 0-102.4h35.157333A136.533333 136.533333 0 0 1 273.066667 34.133333h273.066666a136.533333 136.533333 0 0 1 136.533334 136.533334v682.666666a136.533333 136.533333 0 0 1-136.533334 136.533334H273.066667a136.533333 136.533333 0 0 1-135.4752-119.466667H102.4a51.2 51.2 0 0 1 0-102.4h34.133333v-102.4H102.4a51.2 51.2 0 0 1 0-102.4h34.133333v-102.4H102.4a51.2 51.2 0 0 1 0-102.4h34.133333v-102.4z" fill="#FFAA44" p-id="2797"></path>
  <path d="M273.066667 34.133333h546.133333a136.533333 136.533333 0 0 1 136.533333 136.533334v682.666666a136.533333 136.533333 0 0 1-136.533333 136.533334H273.066667V34.133333z" fill="#FF7744" p-id="2798"></path>
  <path d="M392.533333 307.2A51.2 51.2 0 0 1 443.733333 256h341.333334a51.2 51.2 0 0 1 0 102.4H443.733333A51.2 51.2 0 0 1 392.533333 307.2z m0 204.8a51.2 51.2 0 0 1 51.2-51.2h341.333334a51.2 51.2 0 0 1 0 102.4H443.733333a51.2 51.2 0 0 1-51.2-51.2z m0 204.8a51.2 51.2 0 0 1 51.2-51.2h170.666667a51.2 51.2 0 0 1 0 102.4h-170.666667a51.2 51.2 0 0 1-51.2-51.2z" fill="#FFFFFF" p-id="2799"></path>
</svg>